<?xml version="1.0" standalone="no"?>
<!DOCTYPE svg PUBLIC "-//W3C//DTD SVG 1.1//EN" "http://www.w3.org/Graphics/SVG/1.1/DTD/svg11.dtd" >
<svg xmlns="http://www.w3.org/2000/svg">
<metadata>
Created by FontForge 20120731 at Tue Aug 25 09:12:02 2015
 By Ads
</metadata>
<defs>
<font id="iconfont" horiz-adv-x="1024" >
  <font-face 
    font-family="iconfont"
    font-weight="500"
    font-stretch="normal"
    units-per-em="1024"
    panose-1="2 0 6 3 0 0 0 0 0 0"
    ascent="812"
    descent="-212"
    x-height="792"
    bbox="0 -224 1083 812"
    underline-thickness="50"
    underline-position="-100"
    unicode-range="U+0078-E641"
  />
<missing-glyph horiz-adv-x="374" 
d="M34 0v682h272v-682h-272zM68 34h204v614h-204v-614z" />
    <glyph glyph-name=".notdef" horiz-adv-x="374" 
d="M34 0v682h272v-682h-272zM68 34h204v614h-204v-614z" />
    <glyph glyph-name=".null" horiz-adv-x="0" 
 />
    <glyph glyph-name="nonmarkingreturn" horiz-adv-x="341" 
 />
    <glyph glyph-name="x" unicode="x" horiz-adv-x="1001" 
d="M281 543q-27 -1 -53 -1h-83q-18 0 -36.5 -6t-32.5 -18.5t-23 -32t-9 -45.5v-76h912v41q0 16 -0.5 30t-0.5 18q0 13 -5 29t-17 29.5t-31.5 22.5t-49.5 9h-133v-97h-438v97zM955 310v-52q0 -23 0.5 -52t0.5 -58t-10.5 -47.5t-26 -30t-33 -16t-31.5 -4.5q-14 -1 -29.5 -0.5
t-29.5 0.5h-32l-45 128h-439l-44 -128h-29h-34q-20 0 -45 1q-25 0 -41 9.5t-25.5 23t-13.5 29.5t-4 30v167h911zM163 247q-12 0 -21 -8.5t-9 -21.5t9 -21.5t21 -8.5q13 0 22 8.5t9 21.5t-9 21.5t-22 8.5zM316 123q-8 -26 -14 -48q-5 -19 -10.5 -37t-7.5 -25t-3 -15t1 -14.5
t9.5 -10.5t21.5 -4h37h67h81h80h64h36q23 0 34 12t2 38q-5 13 -9.5 30.5t-9.5 34.5q-5 19 -11 39h-368zM336 498v228q0 11 2.5 23t10 21.5t20.5 15.5t34 6h188q31 0 51.5 -14.5t20.5 -52.5v-227h-327z" />
    <glyph glyph-name="uniE600" unicode="&#xe600;" 
d="M512 533q38 0 64 -27l371 -370q12 -12 12 -29t-12 -28.5t-28.5 -11.5t-28.5 11l-371 371q-2 2 -5 3t-5.5 0t-4.5 -3l-371 -371q-12 -11 -28.5 -11t-28.5 11.5t-12 28.5t12 29l371 370q3 4 7 7l10 6q4 3 8.5 5t9.5 3.5t9.5 3t9.5 2t11 0.5z" />
    <glyph glyph-name="uniE601" unicode="&#xe601;" 
d="M511.5 67q-38.5 0 -64.5 26l-371 371q-12 12 -12 28.5t12 28.5t28.5 12t28.5 -12l371 -371q8 -7 15 1l371 370q12 12 28.5 12t28.5 -12t12 -28.5t-12 -28.5l-371 -371q-26 -26 -64.5 -26z" />
    <glyph glyph-name="uniE602" unicode="&#xe602;" 
d="M319 -148q-17 0 -28 12q-8 7 -11 17.5t0 21t11 18.5l371 371q8 8 0 16l-371 371q-5 5 -8 10.5t-4 12t0 12.5t4 12t8 10q7 8 17.5 11t21 0t18.5 -11l371 -371q18 -18 24 -41.5t0 -47t-24 -41.5l-371 -371q-6 -6 -13.5 -9t-15.5 -3z" />
    <glyph glyph-name="uniE603" unicode="&#xe603;" 
d="M824 297h-103v-104h103v104zM824 124h-103v-103h103v103zM652 469h-104v-103h104v103zM824 469h-103v-103h103v103zM789 711h-68v-104h68v104zM548 711h-69v-104h69v104zM307 711h-69v-104h69v104zM824 676v-103h-138v103h-103v-103h-138v103h-104v-103h-138v103h-138
v-793h897v793h-138zM893 -48h-759v586h759v-586zM479 124h-103v-103h103v103zM307 297h-104v-104h104v104zM479 297h-103v-104h103v104zM479 469h-103v-103h103v103zM652 297h-104v-104h104v104zM652 124h-104v-103h104v103zM307 124h-104v-103h104v103z" />
    <glyph glyph-name="uniE604" unicode="&#xe604;" 
d="M511 711q16 0 22 -14l102 -214q9 -20 31 -23l234 -36q2 0 4 -0.5t4 -1.5l4 -2l2 -4q2 -1 3 -3l2 -4q4 -13 -5 -22l-172 -174q-15 -15 -11 -37l39 -241q3 -13 -9 -22q-3 -2 -6.5 -3t-7.5 -1q-3 0 -6.5 0.5t-5.5 2.5l-204 112q-9 4 -19.5 4t-19.5 -4l-204 -112l-4 -2h-4
q-2 -1 -4 -1q-4 0 -7.5 1t-6.5 3q-6 4 -8.5 10t-1.5 12l40 241q1 10 -2 20t-10 17l-171 174q-10 9 -6 22q5 13 20 15l234 36q10 1 18 7.5t13 15.5l101 214q3 6 9 10t13 4zM511 752q-19 0 -35 -10t-24 -27l-101 -214l-234 -36q-18 -2 -32 -13.5t-20 -29t-2 -35t17 -30.5
l171 -174l-39 -241q-3 -18 4 -35t22 -28q3 -2 6 -3l6 -4l6 -2t6.5 -1.5t6.5 -1t7 -0.5q16 0 31 8l204 112l204 -112q8 -4 16 -6t16 -2q20 0 37 12q10 7 17 17t9.5 22t0.5 24l-40 241l172 174q27 28 15 65q-6 18 -20 29.5t-32 13.5l-234 36l-102 214q-3 7 -7.5 13t-10.5 10.5
t-12.5 7.5t-13.5 4.5t-15 1.5v0zM511 752z" />
    <glyph glyph-name="uniE605" unicode="&#xe605;" 
d="M1024 162q0 55 -36 79q12 6 24 32.5t12 51.5q-1 45 -41 74t-104 29h-229q29 80 24 175t-42 152q-36 57 -89 57q-17 0 -31 -4.5t-22.5 -11.5t-15 -17.5t-10 -20t-5 -21t-2 -18t-0.5 -14.5q0 -63 -7.5 -100t-22.5 -71q-8 -15 -32 -38.5t-64 -45.5t-77 -22h-153
q-29 0 -52 -15.5t-36 -42.5t-13 -62l39 -416q8 -103 100 -103q32 -1 55 -1q9 0 17 0.5t13 0.5q19 0 50 23l2 2l9 6q3 2 7 4t7 2q1 0 7 -3t17 -8t20 -9q43 -18 95 -18h319q52 0 87.5 13t53 36.5t17.5 57.5q0 14 -3.5 24.5t-12.5 21.5q35 9 58 30t23 54q0 4 -0.5 9t-2 10.5
t-3 10.5t-3.5 9.5t-5 8t-5 4.5q19 5 41 31t22 54zM222 -169h-88q-18 0 -32.5 15t-18.5 39l-40 433q0 25 18 46.5t43 21.5l150 -1h4q2 1 3 1v-530q-3 -3 -6.5 -5t-6.5 -4l-4 -4l-6 -4l-6 -4q-3 -2 -5.5 -3t-4.5 -1zM921 106h-6v-39q5 -2 8.5 -4t8.5 -11.5t5 -24.5
q0 -25 -26.5 -38t-60.5 -13l-1 -37q23 -5 22 -40q0 -68 -115 -68h-330q-12 0 -32 5.5t-34 12.5q-7 3 -55 29v515q38 10 75.5 35.5t60.5 49.5t32 42q10 23 16 46.5t9.5 59t3.5 84.5q0 34 10 45t27 11q4 0 9.5 -1.5t10.5 -4t10.5 -6.5t10.5 -8.5t9.5 -9.5t8.5 -10
q20 -33 29 -84t2 -111.5t-32 -109.5l-9 -36h293q19 -1 36.5 -5.5t31.5 -11.5t23 -18t9 -25l-1 -11v-2t-0.5 -5t-1 -7t-2 -8t-3.5 -8.5t-4.5 -8.5t-6.5 -7t-8 -5.5t-7 -3.5t-5.5 -1.5t-3.5 -1.5h-1v-38q17 -2 25 -8q20 -14 19 -45q-1 -12 -11 -26t-24 -23.5t-25 -9.5z" />
    <glyph glyph-name="uniE606" unicode="&#xe606;" 
d="M512 -36q-9 0 -17.5 0.5t-16.5 1t-16 1.5l-18 2l-16 2l-197 -119v199q-51 36 -89 83.5t-58.5 104.5t-20.5 118q0 107 60 197.5t163.5 143t225.5 52.5t225.5 -52.5t163.5 -143t60 -197.5q0 -80 -35.5 -152.5t-95.5 -125.5t-143.5 -84t-174.5 -31zM512 694
q-107 0 -197.5 -45t-143 -122.5t-52.5 -169.5q0 -84 45 -156.5t123 -119.5l-2 -130l132 80q48 -11 95 -11q80 0 153 27t125.5 72t83.5 107.5t31 130.5q0 140 -115 238.5t-278 98.5zM737 301q-24 0 -40.5 16.5t-16.5 39.5t16.5 39.5t40 16.5t40 -16.5t16.5 -39.5
q0 -35 -32 -50q-12 -6 -24 -6zM512 301q-11 0 -21.5 4.5t-18 12t-12 18t-4.5 22t4.5 21.5t12 17.5t18 12t21.5 4.5q23 0 39.5 -16.5t16.5 -39.5q0 -35 -31 -50q-12 -6 -25 -6zM287 301q-23 0 -39.5 16.5t-16.5 39.5t16.5 39.5t40 16.5t40 -16.5t16.5 -39.5q0 -11 -4.5 -21.5
t-12 -18t-18 -12t-22.5 -4.5z" />
    <glyph glyph-name="uniE607" unicode="&#xe607;" 
d="M842 295q-1 2 -12.5 21t-15.5 29t-11.5 30t-9.5 42t0 47q2 20 9 49.5t14 54t12 46.5t4 34.5t-10 11.5q-19 -2 -87 -15.5t-90 -14.5q-36 -1 -65 5.5t-66 20.5t-63 21q-35 8 -133 51v9q0 20 -14.5 34t-35.5 14t-35.5 -14t-14.5 -34v-855q0 -20 14.5 -34.5t35.5 -14.5
t35.5 14.5t14.5 34.5v453q8 2 25 5t26 4.5t19.5 2.5t15.5 0q27 -3 67 -11.5t81 -18.5l84 -20q41 -10 81 -18.5t66 -11.5q30 -4 49.5 2.5t9.5 25.5z" />
    <glyph glyph-name="uniE608" unicode="&#xe608;" 
d="M784 525l-126 126l63 63q3 3 7 6t8.5 4.5t8.5 3t9 2t9.5 0t9 -2t8.5 -3t8 -4.5t7 -6l51 -51q15 -15 15 -37.5t-15 -37.5zM418 159l-126 126l342 340l126 -126zM191 56l77 205l124 -125zM756 13q14 0 23 -9.5t9 -22.5q0 -9 -4 -16t-11.5 -11.5t-16.5 -4.5h-564
q-3 0 -6.5 1t-7 2.5t-6 3.5t-5 5t-4 6t-2 6.5t-0.5 7.5q0 7 2.5 12.5t6.5 10t10 7t12 2.5h564z" />
    <glyph glyph-name="uniE609" unicode="&#xe609;" 
d="M722 0.5q0 37.5 26 63.5t63.5 26t64 -26t26.5 -64q0 -24 -12 -45t-33 -33t-45 -12q-38 0 -64 26.5t-26 64zM572 600q0 37 26.5 63.5t63.5 26.5q18 0 34.5 -7.5t29 -19.5t19.5 -28.5t7 -35t-7 -35t-19.5 -28.5t-29 -19t-34.5 -7q-51 0 -77 43q-13 22 -13 47zM122 135
q0 62 44 106t106 44t106 -44t44 -106t-44 -106t-106 -44t-106 44t-44 106zM62 135q0 -87 61.5 -148.5t148.5 -61.5q61 0 111.5 32t76.5 84l202 -35v-6q0 -62 44 -106t106 -44t106 44t44 106t-44 106t-106 44q-45 0 -81.5 -23.5t-54.5 -62.5l-197 35q3 18 3 36q0 82 -55 142
l182 182q12 -4 25.5 -6.5t27.5 -2.5q24 0 47 7.5t41.5 21.5t32.5 32.5t21.5 41t7.5 47.5q0 62 -44 106t-106 44q-18 0 -34.5 -4t-31.5 -11.5t-28 -18t-23 -23.5t-17.5 -27.5t-11.5 -31.5t-4 -34q0 -63 45 -107l-177 -178q-50 30 -108 30q-87 0 -148.5 -61.5t-61.5 -148.5z
" />
    <glyph glyph-name="uniE60A" unicode="&#xe60a;" 
d="M884 277h-78v76q0 10 -3 19t-8.5 16t-13 12.5t-16.5 8.5t-19 3q-17 0 -30.5 -8t-21.5 -21.5t-8 -29.5v-76h-79q-25 0 -42.5 -17.5t-17.5 -42t17.5 -41.5t42.5 -17h79v-77q0 -24 17.5 -41.5t42.5 -17.5t42.5 17.5t17.5 41.5v77h78q25 0 43 17t18 41.5t-18 42t-43 17.5z
M414 394q65 0 111.5 45t46.5 109t-46.5 109t-111.5 45t-111 -45t-46 -109q0 -42 21 -77.5t57 -56t79 -20.5zM596 92q-3 0 -8.5 -0.5t-20.5 1t-28 4.5t-29.5 12t-27 21.5t-17 34.5t-4.5 50q4 41 26.5 63t56.5 32q-63 40 -133 40q-84 0 -156 -57t-114 -155.5t-42 -214.5
q0 -11 1 -23h623v23q0 16 -1 33q-16 1 -30.5 4t-33 12t-31.5 23t-22 39t-9 58z" />
    <glyph glyph-name="uniE60B" unicode="&#xe60b;" 
d="M718 -52l-351 355l348 352q8 7 10.5 17t0 20t-10 17t-17 10t-19.5 0t-17 -10l-366 -371q-11 -10 -11 -25q-3 -5 -3.5 -11t0 -12t3.5 -11.5t7 -9.5l372 -376q11 -12 27 -12t27 12q7 7 10 17t0 20t-10 18zM718 -52z" />
    <glyph glyph-name="uniE60C" unicode="&#xe60c;" 
d="M512 -132q-88 0 -169 34q-78 33 -138.5 93.5t-93.5 138.5q-17 40 -25.5 82.5t-8.5 86.5q0 89 34 169q33 79 93.5 139t138.5 93q40 17 82.5 25.5t86.5 8.5q88 0 169 -34q78 -33 138.5 -93t93.5 -139q34 -80 34 -168.5t-34 -169.5q-33 -78 -93.5 -138.5t-138.5 -93.5
q-81 -34 -169 -34zM512 687q-38 0 -75.5 -7.5t-71.5 -21.5t-65.5 -35t-58.5 -48q-55 -55 -84 -125t-29 -147t29 -147t83.5 -124.5t124.5 -83.5t147 -29t147 29t124.5 83.5t83.5 124.5t29 147t-29 147t-83.5 124.5t-124.5 83.5t-147 29zM758 277h-492q-10 0 -17.5 7.5
t-7.5 18.5q0 7 3.5 13t9 9t12.5 3h492q7 0 12.5 -3t9 -9t3.5 -13t-3.5 -13t-9 -9.5t-12.5 -3.5zM512 32q-11 0 -18.5 7.5t-7.5 18.5v491q0 7 3.5 13t9.5 9t13 3q4 0 8 -1t7 -3.5t5.5 -5.5t4 -7t1.5 -8v-491q0 -5 -1.5 -8.5t-4 -7t-5.5 -5.5t-7 -3.5t-8 -1.5z" />
    <glyph glyph-name="uniE60D" unicode="&#xe60d;" 
d="M512 -68q-28 0 -51 17q-127 90 -200 157t-107.5 126t-39.5 123v1v44v1q8 102 65.5 162t127.5 67q19 1 37 1q57 0 96 -19t72 -54q33 35 72 54t96 19q18 0 37 -1q70 -7 127.5 -67t65.5 -161v-1v-45v-1q-7 -94 -83.5 -183.5t-263.5 -222.5q-23 -17 -51 -17zM178 358
q7 -89 105 -185q71 -70 215 -172q6 -5 14 -5t14 5q173 123 243.5 201.5t76.5 156.5v39q-6 75 -46 119t-90 49q-15 2 -30 2q-49 0 -79 -19t-65 -60l-24 -29l-24 29q-35 41 -65 60t-79 19q-15 0 -30 -2q-13 -1 -26 -5.5t-25.5 -12t-24 -17.5t-22 -24t-18.5 -30t-13 -36.5
t-7 -42.5v-40z" />
    <glyph glyph-name="uniE60E" unicode="&#xe60e;" horiz-adv-x="1025" 
d="M79 684l-16 -2q-27 -5 -45 -26t-18 -49v-614q0 -32 23 -54.5t56 -22.5h866q16 0 30.5 6t25.5 16.5t17 24.5t6 30v614q0 32 -23 54.5t-56 22.5h-866zM897 607l-382 -307h-6l-382 307h770zM79 546l380 -305q22 -18 53 -18q7 0 14 1t14 3.5t13 6t12 7.5l380 305v-553h-866
v553z" />
    <glyph glyph-name="uniE60F" unicode="&#xe60f;" 
d="M926 458q-36 86 -102.5 152.5t-152.5 102.5q-90 38 -187.5 38t-186.5 -38q-86 -36 -152.5 -102.5t-103.5 -152.5q-37 -90 -37 -187.5t37 -186.5q37 -86 103.5 -152.5t152.5 -103.5q89 -37 187 -37q32 0 63.5 4t62.5 12.5t61 20.5q86 37 152 103q22 22 41 46.5t34.5 51
t27.5 55.5q19 44 28.5 91t9.5 96q0 97 -38 187zM483.5 -143q-112.5 0 -207.5 55.5t-150.5 150.5t-55.5 207.5t55.5 208t150.5 151t207.5 55.5t208 -55.5t151 -151t55.5 -208t-55.5 -207.5t-151 -150.5t-208 -55.5zM633 472l-154 -154l-154 154q-5 5 -11 7.5t-12.5 2.5
t-13 -2.5t-11.5 -7.5q-10 -10 -10 -24.5t10 -24.5l154 -153l-154 -155q-10 -10 -10 -24t10 -24t24.5 -10t24.5 10l153 154l155 -154q5 -4 11 -7t12.5 -3t13 3t11.5 7v1q10 10 10 24t-10 24l-154 154l154 154q6 6 8.5 15t0 18t-8.5 15q-4 4 -9 6.5t-10.5 3t-10.5 0t-10 -3
t-9 -6.5z" />
    <glyph glyph-name="uniE610" unicode="&#xe610;" 
d="M511 -48q-66 0 -137.5 30.5t-128 75.5t-103 94.5t-71.5 90t-25 58.5t25.5 58.5t72 89.5t103 94.5t127.5 76t137 30.5t137 -30.5t127.5 -76t103 -94.5t72 -89.5t25.5 -58.5q0 -34 -68 -116q-106 -128 -234 -191q-86 -42 -163 -42zM511 592q-48 0 -100.5 -18.5t-96 -46.5
t-83 -62.5t-67.5 -67t-44 -58.5t-16 -38.5t16 -38.5t43.5 -58.5t67.5 -66.5t83.5 -62.5t95.5 -46.5t101 -18q58 0 120.5 25.5t111.5 63t90 79t63 75t22 48.5q0 10 -11.5 31t-33.5 47.5t-51 56t-66 57t-75.5 50t-83 36t-86.5 13.5zM511 155q-39 0 -72.5 19.5t-53 53t-19.5 73
t19.5 73t53 53t72.5 19.5q30 0 56.5 -11.5t46 -31t31 -46.5t11.5 -56q0 -61 -42.5 -103.5t-102.5 -42.5zM511 388q-24 0 -44 -11.5t-31.5 -32t-11.5 -43.5q0 -36 25.5 -62t61.5 -26t61.5 26t25.5 62t-25.5 61.5t-61.5 25.5zM511 388z" />
    <glyph glyph-name="uniE611" unicode="&#xe611;" 
d="M329 743q0 1 -0.5 1.5t-1.5 0.5q-33 34 -77.5 45.5t-89 0t-77.5 -45.5q-50 -49 -51 -119t47 -121q10 19 22 38t25 36t28 33.5t30.5 31.5t33 29t35.5 26.5t37 23.5t39 20zM945 505q48 51 47 121t-51 119q-50 51 -122 51t-122 -51l-1 -1l-1 -1q32 -15 61.5 -34t56.5 -41.5
t51 -48t44.5 -54.5t36.5 -60zM768 204h-256q-15 0 -24 11q-8 9 -8 21v0v304q0 14 9.5 23t22.5 9q9 0 16 -4t11.5 -11.5t4.5 -16.5v-272h224q14 0 23 -9.5t9 -22.5q0 -7 -2.5 -12.5t-6.5 -10t-10 -7t-13 -2.5zM775 -91q56 41 97.5 96.5t64.5 124t23 141.5q0 92 -35.5 174.5
t-95.5 142.5t-143 95.5t-174 35.5q-73 0 -141.5 -22.5t-123.5 -64t-96.5 -96.5t-64 -123.5t-22.5 -141.5q0 -110 50 -205t135 -157l-78 -78q-6 -7 -8 -15t0 -16t8 -15q5 -4 11 -6.5t12 -2.5q3 0 5.5 0.5t4.5 1t4.5 2t4.5 3t4 2.5l88 89q97 -51 207 -51q55 0 107.5 13
t99.5 38l88 -89q3 -2 5.5 -3.5t5.5 -3t6 -2t6 -0.5q13 0 23 9q4 5 6.5 11t2.5 12t-2.5 12t-6.5 11zM128 271.5q0 104.5 51.5 193t140 139.5t192.5 51q78 0 149 -30t122.5 -81.5t82 -122.5t30.5 -150q0 -104 -51.5 -192.5t-140 -140t-192.5 -51.5t-192.5 51.5t-140 140
t-51.5 193z" />
    <glyph glyph-name="uniE612" unicode="&#xe612;" 
d="M677 607v62q0 16 -8.5 30.5t-24 22.5t-33.5 8h-198q-28 0 -47 -18t-19 -43v-62h-265v-61h99v-615q0 -25 19.5 -43t46.5 -18h530q27 0 46.5 18t19.5 43v615h99v61h-265zM413 669h198v-62h-198v62zM777 -69h-530v615h530v-615zM347 454h66v-430h-66v430zM479 454h66v-430
h-66v430zM611 454h66v-430h-66v430zM611 454z" />
    <glyph glyph-name="uniE613" unicode="&#xe613;" 
d="M512 -155q-17 0 -97 92q-144 165 -214 314q-41 90 -42 151q0 96 47.5 177t128.5 128.5t177 47.5t177 -47.5t128.5 -128.5t47.5 -177q0 -129 -171 -358q-94 -127 -160 -185q-17 -13 -22 -14zM512 709q-42 0 -81.5 -11t-73.5 -30.5t-62.5 -48t-48 -62t-30.5 -73.5t-11 -82
q0 -47 31 -117.5t75 -136.5t89 -125.5t77 -95.5t35 -36q2 0 33.5 36t76.5 95.5t90 125.5t76 136.5t31 117.5q0 127 -90 217t-217 90zM512 277q-34 0 -63 17t-45.5 45.5t-16.5 62.5q0 52 36.5 88.5t88.5 36.5t88.5 -36.5t36.5 -88.5t-36.5 -88.5t-88.5 -36.5zM512 482
q-33 0 -56.5 -23.5t-23.5 -56.5t23.5 -56t56.5 -23q22 0 40 10.5t29 29t11 39.5q0 33 -23.5 56.5t-56.5 23.5z" />
    <glyph glyph-name="uniE614" unicode="&#xe614;" 
d="M831 4h-69v-68q0 -8 -1.5 -15.5t-5 -14.5t-8 -13t-10.5 -10.5t-13 -8t-14.5 -5t-15.5 -1.5h-501q-18 0 -34 9t-25 24.5t-9 34.5v592q0 13 5.5 26t14.5 22t22 14.5t26 5.5h69v68q0 28 20 48t48 20h501q11 0 21.5 -3.5t18.5 -9.5t14.5 -14.5t10 -19t3.5 -21.5v-592
q0 -28 -20 -48t-48 -20zM216 550q-19 0 -32 -13t-13 -32v-546q0 -13 6 -23.5t16.5 -16.5t22.5 -6h455q19 0 32.5 13.5t13.5 32.5v546q0 19 -13.5 32t-32.5 13h-455zM853 641q0 19 -13 32.5t-32 13.5h-455q-19 0 -32.5 -13.5t-13.5 -32.5v-45h387q14 0 26.5 -5.5t21.5 -14.5
t14.5 -22t5.5 -26v-478h46q9 0 17.5 3.5t14.5 9.5t9.5 14.5t3.5 17.5v546zM603 4h-319q-9 0 -15.5 6.5t-6.5 16t6.5 16.5t15.5 7h319q9 0 16 -7t7 -16.5t-7 -16t-16 -6.5zM603 141h-319q-9 0 -15.5 6.5t-6.5 16t6.5 16t15.5 6.5h319q5 0 9 -1.5t7 -4.5t5 -7.5t2 -9.5
q0 -9 -7 -15.5t-16 -6.5zM603 277h-319q-9 0 -15.5 7t-6.5 16q0 6 3 11.5t8 8.5t11 3h319q9 0 16 -7t7 -16q0 -4 -1.5 -7.5t-3.5 -6t-4.5 -4.5t-6 -3.5t-7.5 -1.5zM603 414h-319q-9 0 -15.5 6.5t-6.5 16.5q0 6 3 11t8 8t11 3h319q4 0 7.5 -1t6 -3t4.5 -5t3.5 -6.5t1.5 -6.5
q0 -10 -7 -16.5t-16 -6.5z" />
    <glyph glyph-name="uniE615" unicode="&#xe615;" 
d="M367 146l194 55l-139 138zM885 524l-138 138l-306 -304l139 -137zM845 13q0 -35 -25.5 -60.5t-61.5 -25.5h-520q-36 0 -61.5 25.5t-25.5 60.5v521q0 36 25.5 61.5t61.5 25.5h347l86 86h-462q-60 0 -102.5 -42t-42.5 -102v-578q0 -60 42.5 -102.5t102.5 -42.5h578
q60 0 102.5 42.5t42.5 102.5v462l-87 -87v-347zM950 640l-87 86q-11 10 -26.5 9.5t-27.5 -11.5l-41 -41l138 -138l42 41q11 12 11.5 27.5t-9.5 26.5z" />
    <glyph glyph-name="uniE616" unicode="&#xe616;" 
d="M258 -17q-19 0 -35 9.5t-25.5 25.5t-9.5 35v245q0 20 9.5 37.5t26 27.5t34.5 10h69q65 0 108 44t43 110v18q0 18 10 34.5t26.5 26t35.5 9.5h2q22 0 40.5 -13t25.5 -35l5 -12q21 -64 5 -127l-2 -10q-1 -5 -3 -13t-6 -16h149q34 0 56 -28q10 -13 13 -29.5t-2 -33.5
l-75 -263q-6 -23 -25 -37.5t-43 -14.5h-432zM258 337q-13 0 -23.5 -12t-10.5 -27v-245q0 -14 10 -24t24 -10h432q5 0 9.5 1t8 3.5t7 5.5t5.5 7t4 9l75 263q5 17 -6 32q-3 3 -6 5.5t-6 4.5t-7 3t-8 1h-203v35h12q3 3 6.5 9t6 13t2.5 10v1v2l3 12q14 54 -4 107l-5 13
q-1 5 -4.5 9.5t-7.5 7.5t-9 4.5t-11 1.5h-2q-14 0 -25 -10.5t-11 -23.5v-18q0 -81 -53.5 -135.5t-133.5 -54.5h-69zM690 -4h-432q-11 0 -22 4.5t-18.5 12t-12 18.5t-4.5 22v245q0 25 17 43.5t40 18.5h69q70 0 117 48t47 119v18q0 23 18 40t41 17h2q18 0 33 -11t21 -28l5 -13
q19 -59 4 -119l-2 -11q0 -2 -1 -5t-2 -6.5t-2.5 -8t-3.5 -8.5t-5 -8.5t-6 -7.5h173q7 0 13 -1.5t12 -4.5t11 -7t9 -10q18 -23 10 -51l-76 -263q-5 -19 -20.5 -31t-34.5 -12zM258 351q-19 0 -33.5 -16t-14.5 -37v-245q0 -20 14 -34t34 -14h432q16 0 29 10.5t17 26.5l76 263
q1 5 1.5 11t-0.5 11.5t-3.5 10.5t-5.5 10q-7 9 -17 14t-21 5h-190v9q9 0 18 18t9 27l1 1l2 11q15 57 -4 114l-5 13q-5 14 -17.5 23t-27.5 9h-2q-19 0 -34 -14t-15 -33v-18q0 -37 -13.5 -70t-36.5 -56t-55 -36.5t-69 -13.5h-69zM335 -1q-8 0 -13 5t-5 13v322q0 8 5 13t13 5
q5 0 9 -2.5t6.5 -6.5t2.5 -9v-322q0 -15 -15 -18h-3zM335 12q-2 0 -3.5 1.5t-1.5 3.5v322q0 2 1.5 3.5t3.5 1.5q4 0 4 -5v-322q-1 -4 -4 -5zM335 12z" />
    <glyph glyph-name="uniE617" unicode="&#xe617;" 
d="M725 242q50 44 78.5 106t28.5 132q0 133 -93.5 226.5t-226.5 93.5t-226.5 -93.5t-93.5 -226.5q0 -70 28.5 -132t78.5 -106q-135 -62 -217 -187.5t-82 -278.5h128q0 159 112.5 271.5t271.5 112.5t271.5 -112.5t112.5 -271.5h128q0 101 -38 193.5t-105 162t-156 110.5z
M512 672q52 0 96.5 -25.5t70 -70t25.5 -96.5q0 -80 -56 -136t-136 -56t-136 56t-56 136t56 136t136 56z" />
    <glyph glyph-name="uniE618" unicode="&#xe618;" 
d="M950 -5l-204 201q51 85 51 184q0 59 -18.5 114.5t-52.5 100t-79 78t-101.5 52t-115.5 18.5q-75 0 -143 -29t-117.5 -77.5t-78.5 -115.5t-29 -141q0 -98 49 -181.5t134 -132t185 -48.5q54 0 104.5 14.5t93.5 42.5l202 -198q13 -14 34 -11.5t38 18.5l40 40q16 16 18.5 37
t-10.5 34zM175 380q0 41 13 79.5t36.5 69t54.5 54t70 36t81 12.5q51 0 98.5 -20t81.5 -53.5t54 -80t20 -97.5t-20 -97.5t-54 -80t-81.5 -53.5t-98.5 -20q-106 0 -180.5 73.5t-74.5 177.5z" />
    <glyph glyph-name="uniE619" unicode="&#xe619;" 
d="M687 395l-175 -216l-176 216h351z" />
    <glyph glyph-name="uniE61A" unicode="&#xe61a;" 
d="M512 812q-133 0 -226.5 -93.5t-93.5 -226.5q0 -90 33 -195.5t80 -192t94 -160t80 -114.5l33 -42q13 16 34.5 43.5t77 111t97.5 164.5t76.5 188t34.5 197q0 133 -93.5 226.5t-226.5 93.5zM512 296q-81 0 -138.5 57.5t-57.5 138.5t57.5 138.5t138.5 57.5t138.5 -57.5
t57.5 -138.5t-57.5 -138.5t-138.5 -57.5zM388 492q0 51 36.5 87.5t87.5 36.5t87.5 -36.5t36.5 -87.5t-36.5 -87.5t-87.5 -36.5t-87.5 36.5t-36.5 87.5z" />
    <glyph glyph-name="uniE61B" unicode="&#xe61b;" 
d="M973 568q-21 2 -41.5 5t-39.5 7.5t-37 10.5q-9 3 -17.5 6t-17.5 6q-12 4 -26.5 10t-32 15t-36.5 19l-1 1q-13 8 -27 16q-17 10 -37 24l-1 1q-5 3 -9 6t-8.5 6t-8.5 6q-3 2 -6.5 5t-4.5 3.5t-6 4.5q-2 1 -6.5 4.5t-6.5 5.5q-49 38 -91 82q-42 -44 -91 -82q-2 -2 -6.5 -5.5
t-6.5 -4.5q-12 -9 -17 -13q-12 -9 -26 -18l-1 -1q-20 -14 -37 -24l-14 -8q-7 -4 -13 -8l-1 -1q-56 -32 -95 -44q-18 -7 -35 -12q-55 -18 -118 -23q1 -7 1.5 -16t0.5 -16.5t1 -20.5t1 -20h1q10 -153 56 -288q1 -2 1.5 -4t1.5 -4t1 -3q1 -1 1.5 -3t0.5 -3
q54 -146 143.5 -247.5t201.5 -140.5q25 -9 49 -14q3 1 6.5 1.5t7.5 1.5t8 2.5t8.5 2.5t9.5 2.5t9 3.5q112 39 201.5 140.5t143.5 247.5q0 1 0.5 3t1.5 3q0 1 1.5 5t2.5 6q46 135 56 288h1q3 62 4 73zM895 507q-11 -245 -116 -425q-26 -43 -55 -79.5t-62 -65.5
q-68 -59 -146 -83l-2 -1l-2 1l-2 -1l-2 1q-78 24 -146 83q-33 29 -62 65.5t-55 79.5q-34 59 -59 127t-39 143t-18 155v6l5 1q190 44 370 200l8 7l8 -7q44 -38 90 -70t92.5 -57.5t93.5 -43.5t94 -29l5 -1v-6zM477 91q-4 0 -8 1.5t-7 4.5l-16 16l-1 1l-173 171q-3 3 -4.5 6.5
t-1.5 8.5q0 9 6 15l16 16q6 6 15 6t16 -7l158 -156l269 266q2 1 3.5 2.5t3.5 2t4.5 1t4.5 0.5q3 0 5.5 -0.5t5 -2t4.5 -3.5l16 -16q6 -6 6 -15q0 -4 -1.5 -8t-4.5 -7l-300 -297q-7 -6 -16 -6z" />
    <glyph glyph-name="uniE61C" unicode="&#xe61c;" horiz-adv-x="1058" 
d="M529 722q50 0 99 -11.5t91.5 -33t80 -51t67.5 -67.5t51.5 -80.5t32.5 -91t11 -99.5q0 -59 -15.5 -115t-43.5 -103.5t-68 -88t-87.5 -68.5t-104 -43.5t-114.5 -15.5q-89 0 -169 34.5t-138.5 92.5t-92.5 138.5t-34 168.5t34 168.5t92.5 138.5t138.5 92.5t169 34.5zM529 788
q-68 0 -133 -18t-120 -50t-101 -78.5t-78 -101t-50 -119.5t-18 -133q0 -102 39.5 -194.5t106.5 -159.5t159.5 -106.5t194 -39.5t194 39.5t159.5 106.5t106.5 159.5t39.5 194.5t-39.5 194.5t-106.5 159.5t-159.5 106.5t-193.5 39.5zM529 521q50 0 86 -36t36 -87
q0 -33 -17 -61.5t-45 -44.5q70 -20 115 -79t45 -133q0 -3 -1 -6t-3.5 -5.5t-5 -4.5t-5.5 -4l-4 -2q-3 -2 -4 -2l-1 -1h-393q-24 11 -24 25q0 74 45 133t115 79q-19 10 -32.5 26.5t-21.5 37t-8 42.5q0 51 36 87t87 36zM529 587q-79 0 -134 -55.5t-55 -133.5q0 -15 2.5 -30
t7 -29t11.5 -27q-56 -40 -87.5 -101.5t-31.5 -130.5q0 -9 2 -17.5t5.5 -16.5t9 -15.5t12.5 -14t15.5 -12t18.5 -9.5l13 -6h421l13 6q20 9 34 22t21.5 29t7.5 34q0 69 -31.5 130.5t-87.5 101.5q21 41 21 86q0 52 -25 95.5t-68.5 68.5t-94.5 25v0z" />
    <glyph glyph-name="uniE61D" unicode="&#xe61d;" 
d="M690 274q35 34 55 79t20 95q0 101 -71 172t-171.5 71t-171.5 -71t-71 -172q0 -97 68 -167q-105 -44 -168.5 -138t-63.5 -205q0 -12 8 -20.5t20 -8.5t20 8.5t8 20.5q0 99 59.5 181t155.5 116q5 2 10 7q28 -17 60 -26.5t65 -9.5q62 0 115 29q64 -22 112.5 -67t75.5 -105
t27 -125q0 -8 3.5 -14.5t10 -10.5t14.5 -4q6 0 11 2.5t9 6t6 9t2 11.5q0 107 -59.5 198.5t-158.5 137.5zM340 448q0 76 53.5 129.5t129 53.5t129 -53.5t53.5 -129t-53.5 -129t-129.5 -53.5q-37 0 -70.5 14.5t-58 39t-39 58t-14.5 70.5z" />
    <glyph glyph-name="uniE61E" unicode="&#xe61e;" 
d="M903 541l-147 149q-26 26 -62 26t-61 -25l-149 -148q-26 -26 -26 -62t25 -61l29 -29l46 45l-5 4q-11 11 -15 26t0 30t16 26l99 99q11 11 26 14.5t30 -0.5t26 -15l98 -99q17 -17 17 -41t-17 -41l-99 -99q-11 -11 -26 -14.5t-30 0.5t-26 15l-5 4l-45 -45l29 -29
q25 -26 61 -26t62 25l149 148q25 25 25.5 61.5t-25.5 61.5zM540 181l-29 29l-45 -45l4 -4q11 -12 15 -27t0 -29.5t-15 -26.5l-99 -98q-17 -17 -41.5 -17t-40.5 17l-99 100q-17 17 -17 41t17 41l100 98q17 17 41 17t41 -17l4 -4l45 45l-29 29q-25 25 -61 25.5t-62 -25.5
l-148 -148q-17 -16 -23 -38.5t-0.5 -45t22.5 -39.5l148 -149q16 -16 38.5 -22t45 -0.5t39.5 22.5l149 148q25 25 25.5 61t-25.5 62zM420 165q-9 -9 -22.5 -9t-22.5 9q-9 10 -9 23t9 22l228 226q9 10 22.5 10t22.5 -10q5 -4 7.5 -10t2.5 -12.5t-2.5 -12.5t-7.5 -10z" />
    <glyph glyph-name="uniE61F" unicode="&#xe61f;" 
d="M510 741q-71 0 -138.5 -22.5t-121.5 -63t-94.5 -94.5t-63 -121.5t-22.5 -138.5q0 -90 35 -171.5t94 -140.5t140.5 -94t171 -35t171 35t140.5 94t93.5 140.5t34.5 171.5q0 59 -15.5 116t-44 105.5t-69 89t-89 69t-105.5 44.5t-117 16zM510.5 -91q-106.5 0 -196.5 52.5
t-142.5 142.5t-52.5 196.5t52.5 196.5t142.5 142.5t196 52.5q64 0 124 -19.5t108 -56t84.5 -84.5t56 -108t19.5 -123q0 -107 -52.5 -197t-142.5 -142.5t-196.5 -52.5zM700 89q0 -8 -1.5 -15t-4.5 -14q-6 -13 -16.5 -23t-25 -16t-31.5 -6h-217q-17 0 -31.5 6t-24.5 16
q-6 5 -10 10.5t-7 12.5q-6 13 -6 29v423q0 16 6 29.5t16.5 23.5t25 15.5t31.5 5.5h217q17 0 31.5 -5.5t25 -15.5t16.5 -23.5t6 -29.5v-423zM651 483h-277v-364h277v364zM512 101q-13 0 -22.5 -9t-9.5 -22t9.5 -22.5t22.5 -9.5q14 0 23 9.5t9 22.5t-9 22q-5 5 -10.5 7
t-12.5 2zM561 535q0 5 -3 7.5t-7 2.5h-77q-3 0 -6.5 -2.5t-3.5 -7.5t3 -8q1 -1 3 -2t4 -1h77q4 0 7 3t3 8zM561 535z" />
    <glyph glyph-name="uniE620" unicode="&#xe620;" 
d="M515 -148q-90 0 -173 36t-143 96t-95.5 143t-35.5 174t35.5 174t95.5 143.5t143 96t173 35.5q91 0 174 -35.5t143 -96t95.5 -143.5t35.5 -174q0 -170 -113 -297q-109 -123 -269 -147q-33 -5 -66 -5zM515 706q-65 0 -126.5 -20.5t-111.5 -58t-87.5 -87t-57.5 -111.5
t-20 -128q0 -110 54 -203.5t147 -147.5t202 -54q110 0 203 54.5t147 147.5t54 203t-54 203t-147 147.5t-203 54.5zM771 92h-498q-21 0 -35.5 15t-14.5 36v316q0 14 6.5 26t18 18.5t25.5 6.5h498q14 0 25.5 -6.5t18 -18.5t6.5 -26v-316q0 -21 -14.5 -36t-35.5 -15zM758 129
l-156 142l-25 -23q-12 -10 -25.5 -15t-29.5 -5q-32 0 -55 20l-25 23l-156 -142h472zM260 440v-285l155 144zM285 473l198 -181q26 -24 39 -24q6 0 15.5 6t22.5 18l199 181h-474zM784 440l-155 -141l155 -144v285z" />
    <glyph glyph-name="uniE621" unicode="&#xe621;" 
d="M884 568h-2h-1h-45q-34 67 -84.5 109.5t-96.5 42.5h-287q-50 0 -99 -44t-82 -108h-44h-4q-57 -8 -97.5 -57t-40.5 -110v-355q0 -59 38.5 -104.5t95.5 -54.5h3h747h3q58 9 96 54.5t38 104.5v355q0 30 -11 58.5t-29.5 51t-44 38t-53.5 19.5zM976 46q0 -42 -26.5 -74
t-66.5 -39h-743q-40 7 -66 39t-26 74v355q0 43 28.5 78.5t67.5 42.5h58q6 0 12 3.5t9 9.5q28 59 69.5 99t75.5 40h287q32 0 74.5 -38.5t71.5 -100.5q6 -13 21 -13h57q39 -7 68 -42.5t29 -78.5v-355zM512 483q-19 0 -38 -3t-36 -9t-33 -14t-30.5 -18.5t-27 -23.5t-23 -27
t-19 -30.5t-14 -33.5t-8.5 -35.5t-3 -37.5q0 -63 31 -116.5t84.5 -84.5t116.5 -31q96 0 164 68t68 164q0 103 -77 172q-67 59 -155 60zM512 65q-51 0 -93.5 25t-67.5 68t-25 93q0 77 54.5 131.5t131 54.5t131 -54.5t54.5 -131.5q0 -88 -68 -143q-52 -42 -117 -43z" />
    <glyph glyph-name="uniE622" unicode="&#xe622;" 
d="M825 346q3 6 7.5 15.5t10.5 35t3 47.5t-23 45.5t-58 36.5l-80 225q-3 -6 -8 -17t-22 -42.5t-36 -60.5t-49.5 -65t-62.5 -63t-75 -47t-88 -25l89 -237l71 16q226 41 362 -45l25 -18zM398 169l-92 246l-135 -26q-1 -2 -4 -5.5t-10 -15.5t-12.5 -25t-11 -31.5t-7 -36.5
t2 -39.5t13.5 -41.5t30 -41t49 -39l71 20l118 -282l53 33l-107 271z" />
    <glyph glyph-name="uniE623" unicode="&#xe623;" 
d="M889 104h-99v99q0 17 -11.5 28.5t-28.5 11.5q-11 0 -20 -5.5t-14 -14.5t-5 -20v-99h-100q-16 0 -27.5 -11.5t-11.5 -28t11.5 -28t27.5 -11.5h100v-99q0 -11 5 -20.5t14 -14.5t20 -5t20 5t14.5 14.5t5.5 20.5v99h99q16 0 28 11.5t12 28t-12 28t-28 11.5zM507 2h-292
q-8 0 -15.5 3t-12.5 8.5t-8.5 13t-3.5 15.5v555q0 16 12 28t28 12h555q17 0 28.5 -12t11.5 -28v-282v0v-1q0 -8 3 -15.5t8.5 -12.5t13 -8t15.5 -3q16 0 27.5 11.5t11.5 27.5v1v0v322q0 32 -23 55.5t-56 23.5h-635q-13 0 -25 -4t-21.5 -11.5t-17 -17t-11.5 -21.5t-4 -25v-635
q0 -13 4 -25t11.5 -22t17 -17t21.5 -11t25 -4h332q17 0 28.5 11.5t11.5 28t-11.5 28t-28.5 11.5zM507 119q14 25 38.5 40t54.5 15h42v42q0 22 8 41t22.5 33.5t32.5 22.5v2l-54 163l-188 -243l-50 85l-200 -201h294zM413 458q0 25 -17 42.5t-42 17.5t-42.5 -17.5t-17.5 -42.5
t17.5 -42t42.5 -17t42 17t17 42z" />
    <glyph glyph-name="uniE624" unicode="&#xe624;" 
d="M571 689v0q-63 0 -122 -19t-106.5 -54t-83.5 -81.5t-56.5 -104.5t-22.5 -120h-117l175 -195l176 195h-136q2 58 25.5 110t62.5 90t92.5 60t112.5 22q121 0 207 -85.5t86 -206.5q0 -79 -39.5 -146.5t-107 -106.5t-146.5 -39q-96 0 -174 57l-67 -72q106 -82 241 -82
q106 0 196 52t142 141.5t52 195.5q0 79 -31 151t-83 124.5t-124.5 83t-151.5 30.5z" />
    <glyph glyph-name="uniE625" unicode="&#xe625;" 
d="M453 689v0q79 0 150.5 -29.5t123.5 -80.5t83.5 -121.5t33.5 -147.5h117l-175 -195l-176 195h136q-4 118 -89 200t-204 82q-121 0 -207 -85.5t-86 -206.5t86 -206.5t207 -85.5q96 0 174 57l67 -72q-106 -82 -241 -82q-79 0 -151.5 30.5t-124.5 83t-83 124.5t-31 151
t31 151t83 124.5t124.5 83t151.5 30.5z" />
    <glyph glyph-name="uniE626" unicode="&#xe626;" horiz-adv-x="1252" 
d="M116 684v-792h967v792h-967zM1011 -35h-822v646h822v-646zM358 281q15 0 28.5 6t23 15.5t15.5 23t6 28.5q0 30 -21.5 51t-51.5 21t-51 -21t-21 -51q0 -20 9.5 -36.5t26 -26.5t36.5 -10zM383 61l253 232l101 -229l231 317l-59 43l-156 -215l-92 206l-327 -300z" />
    <glyph glyph-name="uniE627" unicode="&#xe627;" 
d="M691 452q15 0 34 -2q-23 108 -126.5 180t-235.5 72q-98 0 -180.5 -40.5t-131 -110.5t-48.5 -154q0 -142 144 -243l-36 -108l126 63q6 -1 25 -5t26.5 -5.5t22.5 -3.5t27 -3t25 -1q15 0 33 1q-5 19 -8 38t-3 38q0 118 89 201t217 83zM498 549q13 0 23 -5.5t16 -15.5t6 -23
q0 -21 -12.5 -33t-32.5 -12q-14 0 -26.5 5.5t-20 16t-7.5 23.5q0 8 3 15t8 12t12 9t14.5 6t16.5 2zM246 460q-21 0 -37.5 12.5t-16.5 32t16.5 32t37.5 12.5q20 0 32.5 -12t12.5 -32.5t-12.5 -32.5t-32.5 -12zM1019 172q0 53 -25.5 101.5t-67 83t-97.5 55.5t-116 21
q-42 0 -81.5 -9.5t-73 -26.5t-61.5 -41t-47.5 -52.5t-30.5 -62.5t-11 -69q0 -108 89 -184.5t216 -76.5q17 0 37.5 3t33.5 6t37 9l99 -54l-27 90q126 94 126 207zM614 217q-8 0 -16.5 5t-14 13.5t-5.5 17.5q0 13 11.5 24.5t24.5 11.5q20 0 32.5 -11t12.5 -25q0 -9 -5.5 -17.5
t-16 -13.5t-23.5 -5zM812 217q-13 0 -24.5 11t-11.5 25q0 9 5.5 17t13.5 13.5t17 5.5q13 0 23.5 -5.5t16 -13.5t5.5 -17t-5.5 -17.5t-16 -13.5t-23.5 -5z" />
    <glyph glyph-name="uniE628" unicode="&#xe628;" 
d="M743 310q-17 4 -21.5 10.5t-1.5 11.5l4 6q0 1 1.5 3.5t4.5 9.5t5 14t2.5 17.5t-0.5 20t-6.5 20t-14.5 19.5q-15 15 -39.5 20t-49 1t-47 -10t-36.5 -12l-14 -6q-10 -3 -17.5 -4.5t-11.5 0t-6 3.5t-1.5 8t1 10t3 13.5t3.5 15.5q0 13 -2 24.5t-7 25.5t-16 23t-26.5 14.5
t-41 3t-57.5 -13.5q-37 -13 -77 -39.5t-68 -52t-55 -56t-35.5 -41.5t-13.5 -18q-72 -96 -70 -182l1 -7q6 -53 31.5 -94.5t61 -67.5t84 -44t93 -26.5t94.5 -12.5q81 -6 168 13.5t162 66.5t106 113q16 33 19 62t-5 49.5t-20.5 37t-29.5 27t-30 16.5t-24 8zM408 -31
q-118 -6 -201 46t-83 131q0 78 82.5 134.5t201.5 61.5q120 6 202.5 -39.5t82.5 -122.5q0 -81 -85 -143q-84 -63 -200 -68zM377 273q-114 -13 -136 -114q-7 -29 -4 -53q-1 -47 43 -71q71 -35 134 -21t101 64q15 18 20 45.5t-2.5 55.5t-24.5 51.5t-51.5 35.5t-79.5 7z
M337 64.5q-22 -2.5 -37.5 9t-15.5 29.5q0 19 14.5 35t35.5 19q25 2 40.5 -10t15.5 -31t-15.5 -34t-37.5 -17.5zM430 144q-7 -5 -15 -4.5t-12 7.5q-5 6 -3 15.5t9 14.5q6 4 12 5t10.5 -1t6.5 -6q3 -5 3 -10.5t-3 -11t-8 -9.5zM820 375h4q3 0 5 1l4 2q2 1 3.5 2.5t3 3.5t2.5 4
l2 4q1 2 1 4v2v1q14 124 -84 143q-30 6 -58 1q-10 0 -18 -7.5t-8 -18.5t8 -18.5t18 -7.5q34 7 54 0.5t28 -21.5t10 -30.5t0 -27.5l-1 -12q0 -4 1 -8t3.5 -7t6 -5.5t7.5 -3.5t8 -1zM801 678q-55 13 -129 -1q-1 0 -2 -1t-2 -1h-1q-12 -4 -19.5 -14t-7.5 -23q0 -8 3 -15t8 -12
t12 -8t14 -3q21 3 34 8q6 1 19.5 2.5t36 -4.5t45 -14.5t46.5 -28.5t40 -47q29 -65 12 -126q-8 -18 -8 -36q0 -15 11 -24.5t27 -9.5q10 0 16 1.5t12 9t8 21.5q13 43 15 81.5t-5 69t-21.5 57t-33 45.5t-41.5 34t-45 24.5t-44 14.5z" />
    <glyph glyph-name="uniE629" unicode="&#xe629;" 
d="M757 372l-300 -215q14 -2 39 -5t103.5 -7.5t159.5 -3.5l-8 36l258 224q8 6 5 16t-13 11l-341 29l-134 315q-4 10 -14 10q-3 0 -6 -1t-5 -3.5t-3 -5.5l-134 -315l-341 -29q-3 0 -5.5 -1.5t-4.5 -4t-3 -5.5q-2 -4 -0.5 -8.5t5.5 -7.5l258 -224l-77 -334q-1 -3 -0.5 -6
t2 -5.5t4.5 -4.5q8 -6 17 -1l293 177l293 -177q4 -2 8 -2q5 0 9 3q3 2 4.5 4.5t2 5.5t-0.5 6l-61 264q12 6 25.5 14.5t21.5 14.5l8 6q-2 -1 -7 -3t-25 -7t-45 -9.5t-69 -9t-95.5 -6.5t-126 -0.5t-158.5 7.5l298 216q-1 2 -13.5 5.5t-109 12t-263.5 13.5q-3 1 2 2
q50 15 191 25q210 15 356 -16z" />
    <glyph glyph-name="uniE62A" unicode="&#xe62a;" 
d="M790 -64h80q5 0 9 2t6 6t2 9v767q0 7 -5 12.5t-12 5.5h-603q-4 0 -7 -1.5t-5.5 -4t-4 -5.5t-1.5 -7v-82h541v-702zM683 565h-516q-14 0 -24 -10t-10 -24v-635q0 -14 10 -24.5t24 -10.5h516q10 0 17.5 5t12 13t4.5 17v635q0 14 -10 24t-24 10zM621 66h-391q-11 0 -18 7.5
t-7 19t7 19t18 7.5h391q5 0 10 -2t8.5 -5.5t5.5 -8.5t2 -10q0 -8 -3.5 -14t-9.5 -9.5t-13 -3.5zM621 213h-391q-11 0 -19 8t-8 19q0 7 3.5 13t10 10t13.5 4h391q7 0 13 -4t9.5 -10t3.5 -13q0 -11 -7.5 -19t-18.5 -8zM621 359h-391q-11 0 -19 8t-8 19q0 4 1.5 8t4 7.5t5.5 6
t7 3.5t9 1h391q7 0 13 -3.5t9.5 -9.5t3.5 -13q0 -11 -7.5 -19t-18.5 -8z" />
    <glyph glyph-name="uniE62B" unicode="&#xe62b;" 
d="M818 400v141l-40 -39q-27 -28 -62.5 -63t-49.5 -49q67 -84 67 -190q0 -83 -41 -153t-111 -110.5t-152 -40.5t-152 40.5t-111 110.5t-41 153q0 125 89 214t215 89q97 0 176 -56q18 18 79 76.5t77 73.5h-152v84h290v-281h-81zM209 200q0 -91 64.5 -156t155.5 -65t155.5 65
t64.5 156t-64.5 155.5t-155.5 64.5t-155.5 -64.5t-64.5 -155.5zM209 200z" />
    <glyph glyph-name="uniE62C" unicode="&#xe62c;" 
d="M554 108v-43h185v-88h-185v-124h-90v124h-186v88h186v44q-117 18 -195 108t-78 209q0 88 43 162t117 117t161 43q65 0 124.5 -25.5t102.5 -68.5t68.5 -102.5t25.5 -125.5q0 -121 -80 -211.5t-199 -106.5zM512 659q-63 0 -116.5 -31t-85 -84.5t-31.5 -117.5
q0 -96 68.5 -164t164.5 -68t164.5 68t68.5 164.5t-68.5 164.5t-164.5 68zM512 659z" />
    <glyph glyph-name="uniE62D" unicode="&#xe62d;" 
d="M831 -16h-646v610h161v72h-161q-12 0 -23 -3.5t-20 -10t-15.5 -15.5t-10 -20t-3.5 -23v-610q0 -15 5.5 -28t15 -23t23 -15.5t28.5 -5.5h646q30 0 51 21t21 51v149h-72v-149zM445 504zM911 632q0 -14 -9.5 -24t-23.5 -10h-333q-9 0 -16.5 5t-12 12.5t-4.5 16.5t4.5 17
t12 12.5t16.5 4.5h333q14 0 23.5 -10t9.5 -24zM911 299q0 -14 -9.5 -23.5t-23.5 -9.5t-23.5 9.5t-9.5 23.5v333q0 9 4.5 16.5t12 12t16.5 4.5q14 0 23.5 -10t9.5 -23v-333zM425 137q-6 -6 -14.5 -8.5t-17 0t-15.5 8.5q-5 5 -7.5 11t-2.5 12.5t2.5 12.5t7.5 11l443 443
q10 10 23.5 10t23.5 -10t10 -23.5t-10 -23.5z" />
    <glyph glyph-name="uniE62E" unicode="&#xe62e;" 
d="M904 522q0 13 -7 23t-19 15v40q8 3 14 8.5t9 13.5t3 16q0 7 -2 13.5t-6 11.5t-9.5 8.5t-11.5 5.5q-3 1 -6.5 1.5t-6.5 0.5q-26 0 -37 -24h-43q-3 8 -8.5 13t-12.5 8t-15 3q-26 0 -37 -24h-43q-11 24 -37 24q-8 0 -15 -3t-12.5 -8t-9.5 -13h-42q-5 11 -15 17.5t-22 6.5
t-22 -6.5t-15 -17.5h-43q-10 24 -36.5 24t-36.5 -24h-43q-11 24 -37 24t-37 -24h-42q-4 9 -11 15q-4 3 -8 5t-8.5 3t-9.5 1q-17 0 -29 -11.5t-12 -28.5q0 -5 1.5 -9.5t3.5 -8.5t4.5 -7.5t6.5 -6.5q2 -1 4 -2.5t4 -2.5t5 -2v-40q-8 -3 -14.5 -8.5t-10 -13t-3.5 -16.5
q0 -13 8 -23.5t20 -14.5v-40q-12 -4 -20 -14.5t-8 -24t8 -24t20 -14.5v-40q-12 -4 -20 -14.5t-8 -23.5q0 -9 3.5 -16.5t10 -13t14.5 -8.5v-40q-12 -4 -20 -14.5t-8 -23.5t8 -23.5t20 -14.5v-40q-12 -4 -20 -14.5t-8 -24t8 -24t20 -14.5v-40q-7 -2 -13 -7q-2 -1 -4 -3
t-3.5 -4t-2.5 -4.5t-2 -4.5t-2 -4.5t-1.5 -5.5t-0.5 -6q0 -16 12 -28t29 -12q7 0 13.5 2.5t12.5 6.5q3 3 6 7t5 8h42q11 -24 37 -24t37 24h43q10 -24 36.5 -24t36.5 24h43q11 -24 37 -24t37 24h42q11 -24 37 -24q8 0 15.5 3t13 8.5t8.5 12.5h43q3 -7 8.5 -12.5t13 -8.5
t15.5 -3q26 0 36 24h43q11 -24 37 -24q3 0 6.5 0.5t6.5 1.5q5 2 9.5 4.5t8 6t6.5 8t4 10t1 10.5q0 13 -7 23.5t-19 14.5v41q26 9 26 37q0 9 -3 16.5t-9 13t-14 8.5v41q26 10 26 38q0 8 -3 16t-9 13.5t-14 8.5v40q26 10 26 38q0 13 -7 23.5t-19 14.5v41q12 4 19 14.5t7 23
t-7 23t-19 14.5v41q12 4 19 14.5t7 23.5zM807 -5h-584v589h584v-589zM479 415q0 -30 -21 -51.5t-52 -21.5q-19 0 -36 9.5t-27 26.5t-10 37q0 30 21.5 51.5t52 21.5t51.5 -21.5t21 -51.5zM762 41h-496l155 146l53 -37l167 220l121 -165v-164z" />
    <glyph glyph-name="uniE62F" unicode="&#xe62f;" 
d="M343 217zM512 -115q-172 0 -293.5 121.5t-121.5 293.5t121.5 293.5t293.5 121.5t293.5 -121.5t121.5 -293.5t-121.5 -293.5t-293.5 -121.5zM745 422l-29 28q-12 12 -29 12t-29 -12l-204 -199l-88 85q-12 12 -29 12t-29 -12l-29 -28q-8 -8 -10.5 -18.5t0 -21t10.5 -17.5
l117 -114l29 -29q12 -12 29 -12t29 12l262 257q6 6 9 13.5t3 15t-3 15t-9 13.5z" />
    <glyph glyph-name="uniE630" unicode="&#xe630;" 
d="M512 618q136 0 233 -97t97 -233t-97 -233t-233 -97t-233 97t-97 233t97 233t233 97zM512 708q-174 0 -297 -123t-123 -297t123 -297t297 -123t297 123t123 297t-123 297t-297 123z" />
    <glyph glyph-name="uniE631" unicode="&#xe631;" 
d="M526.5 723q-113.5 0 -210 -56t-153 -152.5t-56.5 -210.5t56.5 -210.5t153 -152.5t209.5 -56q86 0 163.5 33.5t133.5 89.5t89 133.5t33 162.5q0 114 -56 210.5t-152.5 152.5t-210 56zM513 51q-20 0 -34.5 14.5t-14.5 35t14.5 35t34.5 14.5t34.5 -14.5t14.5 -35t-14.5 -35
t-34.5 -14.5zM649 362q-10 -19 -24 -33q-14 -13 -50 -47q-10 -9 -16 -16q-3 -4 -5 -7l-4 -6q-3 -6 -4 -12q-2 -7 -5 -20q-5 -31 -35 -31q-15 0 -25 10t-10 30q0 25 7.5 43.5t20 32.5t33.5 33q19 17 27 25.5t14 19t6 22.5q0 5 -1 9.5t-2.5 8.5t-3.5 8t-4.5 7.5t-6.5 7.5
q-17 16 -44 16q-32 0 -48 -16q-7 -9 -13.5 -21t-11.5 -28q-10 -34 -38 -34q-16 0 -27.5 11.5t-11.5 25.5q0 29 18 58t52 48t80 19q42 0 74 -16t50 -43.5t18 -59.5q0 -13 -2.5 -24t-7.5 -21z" />
    <glyph glyph-name="uniE632" unicode="&#xe632;" 
d="M574 301l289 280q10 10 10 24.5t-10.5 24.5t-25 10t-25.5 -10l-289 -280l-289 280q-10 10 -25 10t-25.5 -10t-10.5 -24.5t10 -24.5l289 -280l-289 -280q-10 -10 -10 -24.5t10 -24.5q7 -7 16.5 -9t18.5 0t16 9l289 280l289 -280q11 -10 25.5 -10t25.5 10q7 7 9.5 16t0 18
t-9.5 15z" />
    <glyph glyph-name="uniE633" unicode="&#xe633;" 
d="M729 451q0 95 -65.5 162.5t-158.5 67.5t-158.5 -67.5t-65.5 -162.5q0 -68 35.5 -124.5t94.5 -84.5q-99 -28 -176 -110t-112 -198q-1 -6 0 -11t5 -9t10 -6q3 -1 6 -1q15 0 20 15q39 131 133 211.5t208 80.5q44 0 86 -13q9 -3 16.5 1.5t9.5 12.5q3 8 -1 16t-13 10
q-1 1 -4 1q59 28 94.5 84.5t35.5 124.5zM505 263q-50 0 -92 25t-66.5 68.5t-24.5 94.5q0 78 53.5 133t129.5 55q37 0 70.5 -15t58 -40t39 -60t14.5 -73q0 -78 -53.5 -133t-128.5 -55zM724 173q0 1 -1 1.5t-2 -0.5l-2 -3v-88h-151l-7 -3q-1 -1 -1.5 -3t-0.5 -3v-87
q0 -4 2.5 -7t6.5 -3l151 1v-89q0 -1 1 -1l1 -2q2 0 3 1l132 137l3 6q0 4 -3 7z" />
    <glyph glyph-name="uniE634" unicode="&#xe634;" 
d="M908 -9h-99v-99h-40v99h-99v40h99v99h40v-99h99v-40zM730 169q-48 39 -102 59t-116 20q-97 0 -179 -47.5t-129.5 -129.5t-47.5 -179h-40q0 136 83 242t211 140q-35 18 -60.5 47t-40.5 66.5t-15 78.5q0 90 64 154t154 64q44 0 84.5 -17.5t69.5 -46.5t46.5 -69.5
t17.5 -84.5q0 -61 -31.5 -112.5t-84.5 -79.5q51 -13 94 -39.5t81 -65.5h-59zM690 466q0 74 -52 126t-126 52q-36 0 -69 -14t-57 -38t-38 -57t-14 -69q0 -74 52 -126t126 -52t126 52t52 126z" />
    <glyph glyph-name="uniE635" unicode="&#xe635;" 
d="M621 40l232 231q7 5 7 17q0 5 -2 9t-4 6l-1 1l-232 232q-4 5 -10 6.5t-12 0t-10.5 -6t-6 -10.5t0 -12t5.5 -11l193 -192h-594q-9 0 -16 -7t-7 -16.5t7 -16t16 -6.5h594l-193 -192q-4 -5 -5.5 -11t0 -12t5.5 -10q7 -7 16.5 -7t16.5 7z" />
    <glyph glyph-name="uniE636" unicode="&#xe636;" 
d="M290 200l5 2q2 -5 28 -16l6 -14q16 -40 39 -122q22 9 62 -15l2 -5l-49 -38l19 -47q4 -9 -46 -32q-18 12 -28 8l-1 2q-17 41 -17 55l-4 -2l6 -16l-11 -5q-65 -26 -95 -8l-4 -2l-2 5q-11 27 34 197q17 7 23 34q20 14 33 19zM203 -38q44 32 40 43q-2 3 0 11l-1 2
q-39 -35 -38 -37q-3 -15 -1 -19zM204 -46l1 -3q9 1 16.5 3t12.5 4q2 1 21 17l-1 2q-12 -5 -16 7q-36 -26 -34 -30zM213 31l12 4q-2 -4 -17 -20q-3 -17 -1 -22q43 34 39 43l1 11l-4 -4l-9 -4l-1 2q17 7 21 41l-1 3q-39 -35 -38 -40zM219 63l1 -3l2 1q44 38 37 56q2 1 2 3
l-3 -1q-45 -35 -38 -53q-2 -1 -1 -3zM229 105l1 -3q21 17 69 64l2 1l-6 16v5l-2 -1q-57 -53 -59 -61zM302 -9l-37 -15q-2 -1 -17 -12l1 -2l13 2l21 8q18 8 63 50l-6 17l-3 -1q-37 -28 -32 -40q1 -3 0.5 -4.5t-3.5 -2.5zM257 162l1 -2l21 21q7 7 8 7l-1 2l-9 -4
q-10 -3 -15 -9.5t-5 -14.5zM265 117q25 -62 12 -98l-3 -31l28 11q-12 49 -34 116l-1 2h-2zM269 126l6 -16q21 25 34 30l-3 9l-3 13l-2 -1q-17 -14 -25 -22.5t-7 -12.5zM283 86q37 28 30 45l-3 7l-2 -1q-34 -31 -29 -42zM284 81l3 -7l3 -12l2 1v-6l6 -16l34 30l-7 16
q-14 -17 -21 -20l-3 -1q-1 3 21 28l-3 15l-1 2zM298 35l3 -7l2 -12q37 28 35 33l-6 14q-8 -6 -17 -13t-17 -15zM348 18q-37 -29 -32 -40l1 -11q40 30 37 37q38 34 44 37l-1 2q-3 5 -15 5l-32 -35zM319 -37l5 -12l-1 -5l3 1q36 23 34 30l-6 14zM325 -59l6 -14q40 22 37 29
l-5 11q-34 -24 -38 -26zM350 27l2 -5q7 3 11 26l-2 -1q-3 -9 -5.5 -14t-5.5 -6zM738 153l5 -1q-1 -2 3 -7t12 -14l-1 -12q-2 -36 -13 -104q20 -1 41 -33v-4l-50 -12l-2 -41q0 -8 -46 -8q-2 5 -5 8.5t-6 5.5t-6 2v2q1 18 2.5 29.5t3.5 16.5l-4 1v-15l-11 1q-57 3 -72 26h-4v4
q1 24 93 135q16 -1 30 17q19 3 30 3zM589 0v-2q14 -5 24 -5q2 0 21 5v2q-10 1 -9 11q-35 -7 -36 -11zM592 6q43 9 44 19q0 1 1 3t3 5v2q-41 -12 -42 -15q-6 -10 -6 -14zM623 54l10 -1q-3 -2 -19 -9q-9 -12 -9 -16q44 10 44 18l4 9l-4 -2h-8v2q15 -1 30 23v2q-41 -12 -42 -16
zM675 -6l-33 2q-2 0 -16 -4l-1 -2l11 -2l18 -1q16 -1 64 15l1 14h-2q-37 -7 -38 -18q0 -4 -4 -4zM638 76v-2h2q46 12 47 28l2 2h-2q-15 -3 -25.5 -7.5t-15.5 -9t-6 -9.5q-1 0 -1.5 -0.5t-0.5 -1.5zM691 100q-3 -55 -25 -77l-13 -22l24 -1q9 40 16 98v2h-2zM660 103v-2
q22 5 73 23h2l1 14l2 4l-2 1q-61 -20 -65 -26zM675 -51l-1 -12q37 2 38 8v10q-34 -6 -37 -6zM678 -33l-1 -10l-2 -4h2q35 5 36 10v13zM718 -2q-37 -9 -38 -19l-2 -8q39 8 40 15q40 12 45 12v2q0 2 -2.5 4t-6.5 4l-36 -14v4zM687 28v-6l-3 -10q37 8 38 12v13q-17 -4 -35 -9z
M693 67v-6l-3 -10l2 -1l-2 -4l-1 -14l36 11v14q-16 -7 -22 -7h-3q1 2 26 13l2 12v2zM693 71q38 8 38 23l1 6h-2q-36 -11 -36 -21zM697 106l-1 -15q24 11 36 11v8l3 10h-2q-34 -8 -36 -14zM701 136l-1 -2q31 11 32 11v2h-8q-17 1 -23 -11zM723 4l-1 -4q4 0 8 3.5t10 11.5h-2
q-10 -12 -15 -11zM476 290q84 16 113 -27q16 -31 19 -48q19 -93 -55 -151q-20 -8 -32 -11q-49 -10 -100 37q-14 26 -18 48q-21 103 47 144zM405 163q9 8 16 10q-15 -16 -15 -19q0 -9 1 -16l2 1q38 25 37 32l-2 11q-7 -6 -13 -7v4q16 4 13 32h-2q-35 -27 -37 -37q-2 -4 0 -11
zM405 185q51 35 46 61q-46 -38 -46 -40q-1 -15 0 -21zM407 217l1 -2q42 34 54 54q16 3 22 18l-3 -1q-57 -11 -74 -69zM409 130q4 -8 5 -15q30 24 36 25l-4 20q-9 -2 -37 -30zM417 113q1 -8 3.5 -12t6.5 -4l29 24q-1 2 -6 17q-26 -23 -33 -25zM428 91q4 -5 6.5 -7t4.5 -2l4 1
q9 8 15 12.5t11 5.5q-2 7 -10 16q-32 -24 -31 -26zM444 76l1 -2q4 1 12 -4q29 16 29 21q-4 2 -7 4t-3 5q-19 -8 -32 -24zM466 69l1 -2l15 1l13 2q4 1 18 11v2q-5 -1 -10.5 0t-10.5 5zM473 145l5 -24q5 -23 30 -35l4 1q38 56 24 129l-3 13l-6 21l-7 -1q-6 -1 -32 2
q-26 -49 -15 -106zM473 269l1 -2q17 -4 21 -3q21 16 24 25l-22 -2q-5 -1 -24 -18zM507 269l4 3q2 0 16 -11q4 6 7.5 10t6.5 7t5.5 4.5t4.5 1.5q-1 5 -23 5q-21 -18 -21 -20zM510 76v-3l5 1q31 6 49 44q-14 -16 -54 -42zM521 89q59 40 55 59q3 7 3 11q-55 -43 -51 -59
q-4 -1 -7 -11zM528 257l7 -16h3q6 10 28 28l-1 3q-8 8 -9 11l-4 -1zM536 236l5 -10l-1 -9l4 1q31 28 30 30v3q-1 5 -2 8t-2.5 4.5t-2.5 1.5q-27 -28 -31 -29zM539 131q43 32 41 42q3 12 2 16h-2l-37 -32q-4 -24 -4 -26zM542 208l2 -13l11 4q-11 -12 -11 -15q-1 -17 0 -20
q29 22 38 36l-3 14q-11 -12 -17 -13q12 18 18 19l-4 22q-32 -29 -34 -34zM298 492q-17 0 -21 -17q-2 -7 -0.5 -14.5t9.5 -14t22 -10.5v54q-3 1 -5.5 1.5t-4.5 0.5zM716 458v-4l2 6q1 3 1 7q0 9 -6 16t-15 7q-3 0 -5.5 -0.5t-4.5 -2.5q12 0 20 -8.5t8 -20.5zM531 439
q0 5 -3.5 12.5t-8.5 14.5t-10 13t-9 10l-4 4q0 -28 13 -53q-3 -6 -6.5 -14.5t-5.5 -14.5l-1 -6l2 1q1 1 4 3l8 4q3 2 7 5.5t7 6.5t5 7t2 7zM486 425q4 2 5 5q-2 4 -5 5q-2 0 -3 -1.5t-1 -3.5t1 -3.5t3 -1.5zM441 558l-2 18q-56 7 -67 -33q18 20 69 15zM623 542
q-4 18 -20.5 26.5t-30.5 8.5l-15 -1q-1 -8 -2 -17q51 4 68 -17zM414 437q12 0 22.5 4.5t18 11.5t11.5 17t4 20q0 15 -7.5 27t-20 19.5t-28.5 7.5q-23 0 -39.5 -16t-16.5 -38t16.5 -37.5t39.5 -15.5zM414 541q22 0 38 -15t16 -35.5t-16 -35.5t-38 -15t-37.5 15t-15.5 35.5
t15.5 35.5t37.5 15zM414 455q16 0 27 10.5t11 24.5q0 10 -5 18.5t-13.5 13t-19.5 4.5q-15 0 -26 -10.5t-11 -25.5q0 -25 25 -33q6 -2 12 -2zM430.5 474q3.5 4 7 1t-0.5 -7t-7 -1t0.5 7zM390 511q10 11 18.5 3t-1.5 -19q-4 -5 -9.5 -6t-9.5 3q-8 8 2 19zM585.5 437
q23.5 0 39.5 15.5t16 37.5t-16 38t-39.5 16t-40 -16t-16.5 -38t16.5 -37.5t40 -15.5zM585 541q22 0 38 -15t16 -35.5t-16 -35.5t-38 -15t-37.5 15t-15.5 35q0 11 4 20t11.5 16t17 11t20.5 4zM585.5 455q15.5 0 26.5 10.5t11 24.5q0 10 -5 18.5t-13.5 13t-19.5 4.5
q-15 0 -26 -10.5t-11 -25t11 -25t26.5 -10.5zM602 474q1 2 3 2t3 -1q3 -3 0 -7q-4 -2 -7 -1q-3 3 1 7zM561 511q2 3 5.5 4.5t7 1t5.5 -2.5q9 -8 -1 -19q-4 -5 -9.5 -6t-9.5 3q-8 8 2 19zM973 289q-1 0 -1.5 1.5t-1.5 1.5v1l-1 1h-2q-9 13 -14.5 20t-20 17t-30.5 13v38
q0 10 -5 10h-206q0 6 -0.5 17t-0.5 13q19 2 32 14.5t13 30.5t-13.5 31.5t-33.5 13.5q-3 146 -8 164v1q-3 4 -22 9q0 24 -12 50q0 -6 -1 -11t-4 -9.5t-6 -8t-7 -6.5t-6 -4l-4 -2q0 1 -0.5 3t-1 6t-1.5 8t-3 10t-5.5 12t-8.5 12.5t-12 13.5t-15.5 14t-20 14t-24.5 13
q-1 -34 -9.5 -57t-23.5 -37h-1h-5v0v-1q-1 0 -1 -1q-7 -5 -14 -9t-21 -7.5t-32 -3.5q-10 0 -21.5 1t-24.5 4q-2 0 -4 0.5t-4 0.5h-4q-4 0 -7.5 -0.5t-8.5 -2.5h-1q-4 -1 -7 -1.5t-5.5 -1.5t-5 -1.5t-4.5 -1.5t-3.5 -1.5t-2.5 -1t-2 -1.5l-1 -1l-1 -1q0 -2 -0.5 -8.5t-2 -46
t-3.5 -109.5q-10 0 -18.5 -4t-15 -10t-10 -14t-3.5 -17q0 -12 6 -22t16.5 -16t22.5 -7v-6v-6v-6v-6v-6h-188q-4 0 -7.5 -3t-3.5 -7v-105q-16 -1 -28 -6q-37 -14 -37 -65q0 -1 0.5 -1.5t0.5 -2.5q-8 -14 -5 -38q2 -12 5 -16q-5 -10 2 -29q5 -14 23 -10q-8 -15 12 -32h3
q1 0 4.5 2.5t6 4t6.5 5.5t7 6v-290q1 -6 11 -7h781q3 0 4 1.5t1 5.5v339q26 2 40 22q8 11 9 18q62 44 22 105zM307 427q-9 0 -16.5 3t-13.5 8.5t-9 13t-3 15.5q0 16 12.5 28t30.5 12v3v-1v-1v-2h2v1h2q3 1 6 1.5t6.5 1.5t7.5 1q4 17 13 34.5t16 26.5l6 9q-10 31 -14 73
q25 -44 85.5 -61t120 -2.5t85.5 51.5q-2 -10 -3.5 -20t-3.5 -17t-3.5 -12.5t-2.5 -8.5l-1 -3l8 -10q4 -6 13.5 -24.5t14.5 -35.5q2 0 8 -1h4q2 0 4 -0.5t4 -0.5v1v2q18 0 31 -13t13 -30q0 -7 -3 -14.5t-8 -13.5q-3 -2 -7 -3l-8 -4q-4 -1 -8.5 -2t-9.5 -1.5t-10 -0.5
q0 -1 2 -38h-369v4v4v4q0 2 0.5 4t0.5 4v4v4v5v2h-3zM110 377q0 3 4 6.5t7 3.5h770q2 0 3.5 -2t2 -4t0.5 -4v-32q0 3 -11 2q-4 -1 -13.5 -2t-14.5 -1.5t-12 -1.5t-12.5 -2.5t-10.5 -2.5h-661l-2 -4v-65q-16 9 -50 9v100zM832 -140h-666v321q17 7 16 24q0 4 -1 6.5t-3 5
t-4.5 4t-7.5 2.5v9q3 1 4 2t1 2.5t1 2.5q9 18 -6 26v60h639q-5 -11 -5 -13q-2 -6 -2 -14v-17l-95 -64l-1 -1q-1 -1 -4 -3t-5.5 -4t-5 -5.5t-3.5 -7t-0.5 -7.5t2.5 -8q15 -24 52 0q1 1 15.5 10t27.5 17t24 17v-1l-3 -2q-9 -6 -4.5 -24t20.5 -21q3 -1 6.5 -0.5t3.5 1.5v-318h4
zM163 169q0 5 -5 9h1q3 1 4 1v-10zM163 225l-1 1h-1h1l1 1v-2zM891 -197h-770q-11 0 -11 7v289q1 0 7 4q17 7 26.5 18.5t0.5 17.5h-1h-1q3 1 5.5 2.5t5 3.5t4 4.5t2.5 5.5t1 6v-314l681 3v317q17 -18 36 -12q2 -4 8 -7t12 -4v-334q0 -7 -6 -7z" />
    <glyph glyph-name="uniE637" unicode="&#xe637;" 
d="M512 738q-73 0 -142 -22.5t-124 -64.5t-96.5 -97t-64.5 -124t-23 -142q0 -92 35.5 -175t96 -143.5t143.5 -96t175 -35.5t175 35.5t143.5 96t96 143.5t35.5 175t-35.5 175t-96 143.5t-143.5 96t-175 35.5zM512 -131q-114 0 -210.5 56t-152.5 152.5t-56 210.5t56 210.5
t152.5 152.5t210.5 56t210.5 -56t152.5 -152.5t56 -210.5q0 -162 -108 -281q-106 -117 -262 -135q-25 -3 -49 -3zM276 443h456q6 0 9.5 -4.5t3.5 -11t-3.5 -11t-9.5 -4.5h-456q-5 0 -8.5 4.5t-3.5 11.5q0 4 1.5 7.5t4.5 5.5t6 2zM276 272h456q6 0 9.5 -4.5t3.5 -10.5
t-3.5 -11t-9.5 -5h-456q-5 0 -8.5 5t-3.5 11q0 3 1 6t2.5 5t4 3t4.5 1zM276 102h456q6 0 9.5 -4.5t3.5 -11t-3.5 -11t-9.5 -4.5h-456q-3 0 -6 2t-4.5 5.5t-1.5 7.5q0 3 0.5 5.5t1.5 4.5l4 2q1 2 2.5 3t3.5 1z" />
    <glyph glyph-name="uniE638" unicode="&#xe638;" 
d="M711 489l6 -102h-17q-5 25 -13.5 41t-19.5 23q-19 14 -80 14h-39v-311q0 -34 11 -43q15 -10 58 -12v-12h-207v12q14 1 25 3t18.5 4.5t11.5 6.5q11 7 11 48v304h-39q-60 0 -80 -14q-22 -14 -33 -64h-17l6 102h398zM512 -147q-88 0 -168.5 34.5t-139 93t-93 139
t-34.5 168.5t34.5 168.5t93 139t139 93t168.5 34.5t168.5 -34.5t139 -93t93 -139t34.5 -168.5t-34.5 -168.5t-93 -139t-139 -93t-168.5 -34.5zM512 681q-80 0 -153 -31t-125.5 -83.5t-83.5 -125.5t-31 -153q0 -107 52.5 -197.5t143 -143t197.5 -52.5t197.5 52.5t143 143
t52.5 197.5q0 80 -31 153t-83.5 125.5t-125.5 83.5t-153 31z" />
    <glyph glyph-name="uniE639" unicode="&#xe639;" 
d="M512 715q43 0 85 -8.5t81 -24.5q77 -33 136 -92t92 -136q33 -79 33 -166q0 -43 -8.5 -85t-24.5 -81q-33 -77 -92 -136q-15 -15 -30.5 -28t-32.5 -24.5t-35.5 -21.5t-37.5 -18q-39 -16 -81 -24.5t-85 -8.5q-87 0 -166 33q-77 33 -136 92t-92 136q-33 79 -33 166t33 166
q33 77 92 136t136 92q79 33 166 33zM512 754q-95 0 -181 -37t-148.5 -99.5t-99.5 -148.5t-37 -181t37 -181t99.5 -148.5t148.5 -99.5t181 -37q76 0 147 23.5t128.5 66.5t100.5 100.5t66.5 128.5t23.5 147q0 54 -12 106.5t-35 98.5t-55 86.5t-72.5 72.5t-86.5 55t-98.5 35
t-106.5 12zM334 377q24 0 41.5 17t17.5 41.5t-17.5 42t-41.5 17.5t-41.5 -17.5t-17.5 -42t17.5 -41.5t41.5 -17zM629 406l-175 -240l-91 123l-147 -207h590z" />
    <glyph glyph-name="uniE63A" unicode="&#xe63a;" 
d="M512 748q-94 0 -179 -36.5t-146.5 -98t-98 -146.5t-36.5 -179q0 -75 23.5 -145t66 -126.5t99 -99t126.5 -66t145 -23.5q94 0 179 36.5t146.5 98t98 146.5t36.5 179t-36.5 179t-98 146.5t-146.5 98t-179 36.5zM512 -152q-60 0 -117 16t-105 44t-89 69t-69 89t-44 105
t-16 117t16 117t44 105t69 89t89 69t105 44t117 16q90 0 171.5 -35t140 -93.5t93.5 -140t35 -171.5q0 -72 -22 -139t-63 -121t-95 -95t-121 -63t-139 -22zM744 195q-4 -20 -14 -35q-4 -7 -10.5 -13t-15.5 -12q-18 -10 -48 -10q-19 0 -37 2l-16 4q-8 2 -14 5q-14 6 -22.5 16
t-10 24.5t4.5 30.5q1 2 2 5l2 4q1 3 3 6l2 4q2 3 4 5l4 4q11 13 27 21.5t36 8.5q32 0 56 -12v215l-233 -34l2 -286v-13q0 -15 -6.5 -30t-17.5 -26q-5 -6 -12 -10.5t-15 -7.5q-15 -7 -34 -7q-11 0 -20.5 1t-17.5 3q-18 4 -31.5 11.5t-21.5 18.5t-9.5 25.5t4.5 27.5q1 5 3.5 9
t6 8t7.5 8q11 11 27.5 18.5t35.5 9.5q14 2 28 0q4 -1 7 -1.5t6.5 -1t6.5 -1.5l6 -2v287l325 47v-327v0zM744 195z" />
    <glyph glyph-name="uniE63B" unicode="&#xe63b;" 
d="M898 614q-1 14 -7 27t-16 24q-17 17 -42 21h-1h-303l-444 -444q-23 -23 -23 -55t23 -54l259 -260q22 -22 54 -22q16 0 30 6t25 16l444 444l1 296v1zM867 330l-436 -435q-13 -13 -33 -13q-9 0 -17.5 3.5t-15.5 9.5l-259 259q-13 14 -13 33t13 33l435 435l288 1
q14 -3 24 -13q13 -13 14 -30v-283zM688 567q-37 0 -63.5 -26.5t-26.5 -64t26.5 -63.5t63.5 -26q9 0 17.5 1.5t16.5 5t15.5 8.5t13.5 11q27 26 27 63.5t-27 63.5q-12 13 -28.5 20t-34.5 7zM729.5 434.5q-17.5 -17.5 -42 -17.5t-41.5 17.5t-17 42t17 42t42 17.5q8 0 15.5 -2
t14 -6t12.5 -9q4 -5 7 -9.5t5.5 -10t3.5 -11t1 -11.5q0 -25 -17.5 -42.5z" />
    <glyph glyph-name="uniE63C" unicode="&#xe63c;" horiz-adv-x="1000" 
d="M500 726q-117 0 -216 -57.5t-157 -157t-58 -216.5t58 -216.5t157 -157t216 -57.5q88 0 167.5 34t137.5 92t92 137.5t34 167.5q0 179 -126 305t-305 126zM500 -62q-73 0 -139.5 28.5t-114 76t-76 114t-28.5 139.5q0 58 18 112.5t51 98.5t77 77t98.5 51t113.5 18
q72 0 138.5 -28t114 -76t76 -114.5t28.5 -138.5q0 -97 -48 -179.5t-130 -130.5t-179 -48zM336 445q-17 0 -29.5 -12t-12.5 -30v-1q0 -4 0.5 -8.5t2.5 -7.5l4 -8q2 -3 5 -6t6 -5l8 -4q3 -2 7.5 -2.5t8.5 -0.5q5 0 9.5 1t8.5 3t8 5t7 6.5t5 7.5t3 9t1 10v1q0 18 -12.5 30
t-29.5 12zM669 445q-18 0 -30 -12t-12 -30v-1q0 -6 1.5 -11.5t4 -10t6.5 -8.5t8.5 -6.5t10 -4t11.5 -1.5q7 0 13 2t11.5 6t9.5 9t6 11.5t2 13.5v1q0 9 -3.5 16.5t-9 13.5t-13.5 9t-16 3zM696 203q0 14 -10.5 24.5t-25 10.5t-25 -10.5t-10.5 -24.5v-3q-15 -37 -49 -60
t-75.5 -23t-75 23t-48.5 61v2q0 9 -5 17.5t-13.5 13.5t-18.5 5q-7 0 -14 -3t-11.5 -8t-7.5 -11.5t-3 -14t3 -14t8 -11.5q22 -56 72.5 -91t113.5 -35q64 0 115.5 36.5t72.5 94.5q7 9 7 21z" />
    <glyph glyph-name="uniE63D" unicode="&#xe63d;" 
d="M397 126h-1v1zM512 720q-117 0 -217 -57.5t-157.5 -157.5t-57.5 -217t57.5 -217t157.5 -157.5t217 -57.5t217 57.5t157.5 157.5t57.5 217q0 70 -21.5 136t-61.5 119.5t-93.5 93.5t-119.5 61.5t-136 21.5zM512 -99q-105 0 -194 52t-141 141t-52 194t52 194t141 141t194 52
t194 -52t141 -141t52 -194t-52 -194t-141 -141t-194 -52zM699 312q7 -4 7 -5l-7 5q-33 22 -153 90t-125 68t-9.5 -2.5t-7.5 -6.5q-2 -1 -4.5 -6t-3.5 -8l1 -321q2 -9 12 -15t19 -4q4 2 8 5l264 151q17 5 16 24q0 5 -2 10.5t-6 9.5t-9 5zM444 167v239l208 -119z" />
    <glyph glyph-name="uniE63E" unicode="&#xe63e;" 
d="M678 480l15 48h84l-131 -386q0 -2 -1 -5.5t-1.5 -5.5t-1 -4.5t-1 -4t-0.5 -3t-1 -2.5v-1q2 -2 2 -7q4 -27 32 -31q31 1 69 29q38 27 57 63q31 58 46.5 108t15.5 91q0 63 -27 118q-9 19 -20.5 35.5t-25 32t-29.5 29.5q-48 42 -106 65q-59 23 -121 25q-39 0 -75.5 -8
t-70.5 -23q-33 -15 -63 -36.5t-55 -48.5q-50 -55 -78 -125q-15 -35 -22 -72.5t-8 -76.5h3v-1q1 -102 48.5 -189.5t129.5 -139.5t181 -52q52 0 97 10t84 29.5t72.5 49.5t60.5 72h74q-42 -75 -100 -124q-57 -49 -129 -73t-159 -24q-118 2 -217 64q-100 62 -157 164
q-57 103 -57 222q0 87 33.5 167.5t93.5 142.5t141 97q80 35 171 35q77 -3 150 -31q72 -28 129 -78q57 -49 89.5 -116t32.5 -147q0 -32 -6 -61q-3 -15 -6.5 -28t-8.5 -24l-24 -51q-6 -12 -11.5 -22.5t-12.5 -22.5q-17 -34 -51 -65q-34 -32 -75 -52q-21 -11 -41 -16t-39 -6
q-67 6 -99 64q-58 -54 -134 -58q-44 4 -78 18q-89 36 -92 158q1 45 12 87.5t30 82.5q11 25 26 48.5t35 45.5q39 44 87 71q47 27 94 27q27 0 53 -10q9 -3 17.5 -7.5t16 -9.5t15.5 -11q22 -18 38 -40zM588 474q-20 14 -48 14q-34 0 -68 -26q-34 -25 -60 -61q-25 -35 -37 -63
q-28 -67 -31 -130q0 -17 3 -31t8 -26t12.5 -21t17 -16t20.5 -12q8 -2 34 -8q87 2 154 156q36 90 36 136q0 29 -10 51t-31 37z" />
    <glyph glyph-name="uniE63F" unicode="&#xe63f;" 
d="M928 300q0 -26 -13.5 -48t-37.5 -35l-624 -415h-1l-1 -1q-24 -13 -52 -13q-43 0 -73 28t-30 68v832q0 40 30 68t73 28q28 0 52 -13l1 -1h1l624 -415q24 -13 37.5 -35t13.5 -48z" />
    <glyph glyph-name="uniE640" unicode="&#xe640;" 
d="M512 -212q-139 0 -257 68.5t-186.5 186.5t-68.5 257t68.5 257t186.5 186.5t257 68.5t257 -68.5t186.5 -186.5t68.5 -257t-68.5 -257t-186.5 -186.5t-257 -68.5zM768 364h-192v192h-128v-192h-192v-128h192v-192h128v192h192v128z" />
    <glyph glyph-name="uniE641" unicode="&#xe641;" 
d="M645 -52q6 0 -3.5 -15t-29 -33t-46 -33t-56.5 -15q-27 0 -52 15t-44 33t-29 33t-6 15h266zM893 33q7 -9 6.5 -17.5t-4.5 -14.5t-10 -9.5t-12 -3.5h-730q-14 0 -20.5 11.5t4.5 28.5q17 30 40 67t43.5 79.5t35.5 90t15 99.5q0 50 14 90t36.5 70t52 51t61.5 32
q-16 26 -16 54q0 41 28 69t69 28t69 -28t28 -69q0 -14 -4 -27.5t-11 -24.5q34 -11 64.5 -32t53 -52t36 -71t13.5 -89q0 -50 15 -98.5t36 -92t44.5 -79.5t42.5 -62zM467 661q0 -16 11 -27.5t27 -11.5h2q16 1 27 12t11 27q0 17 -11 28t-28 11t-28 -11t-11 -28z" />
  </font>
</defs>
</svg>
